<svg height="512" viewBox="0 0 64 64" width="512" xmlns="http://www.w3.org/2000/svg"><g id="flat"><path d="m43 21h-2v-3a3 3 0 0 1 3-3h12a1 1 0 0 0 0-2h-7a3 3 0 0 1 0-6h13v2h-13a1 1 0 0 0 0 2h7a3 3 0 0 1 0 6h-12a1 1 0 0 0 -1 1z" fill="#e97424"/><circle cx="17" cy="17" fill="#d3843d" r="14"/><path d="m28 17h-2a9.01 9.01 0 0 0 -9-9v-2a11.013 11.013 0 0 1 11 11z" fill="#ad6327"/><circle cx="9" cy="18" fill="#66342e" r="2"/><circle cx="12" cy="11" fill="#66342e" r="3"/><circle cx="21" cy="22" fill="#66342e" r="2"/><path d="m26 19h2v2h-2z" fill="#ad6327"/><path d="m13 25h2v2h-2z" fill="#ad6327"/><path d="m18 11h2v2h-2z" fill="#ad6327"/><path d="m35 44v12l5 5h4l5-5v-12z" fill="#4f83d1"/><path d="m23 55h6a0 0 0 0 1 0 0v4a0 0 0 0 1 0 0h-8a0 0 0 0 1 0 0v-2a2 2 0 0 1 2-2z" fill="#e97424" transform="matrix(0 1 -1 0 82 32)"/><path d="m25 42h6v5h-6z" fill="#4da6ea"/><path d="m18 44.5a2.5 2.5 0 0 0 2.5 2.5h.5a2 2 0 0 0 2 2 2 2 0 0 0 2-2v-5h-4.5a2.5 2.5 0 0 0 -2.5 2.5z" fill="#e97424"/><path d="m58.5 30a2.5 2.5 0 0 0 -2.5 2.5v.5a2 2 0 0 0 -2 2 2 2 0 0 0 2 2h5v-4.5a2.5 2.5 0 0 0 -2.5-2.5z" fill="#e97424"/><path d="m56 37v5h-3v5h8v-10z" fill="#4da6ea"/><path d="m49 42h4a0 0 0 0 1 0 0v5a2 2 0 0 1 -2 2h-2a0 0 0 0 1 0 0v-7a0 0 0 0 1 0 0z" fill="#f9bb4b"/><path d="m31 42h2a2 2 0 0 1 2 2v5a0 0 0 0 1 0 0h-4a0 0 0 0 1 0 0v-7a0 0 0 0 1 0 0z" fill="#f9bb4b" transform="matrix(-1 0 0 -1 66 91)"/><path d="m44 47h2v2h-2z" fill="#f4f4e6"/><path d="m38 47h4v2h-4z" fill="#f4f4e6"/><path d="m38 51h2v2h-2z" fill="#f4f4e6"/><path d="m42 51h4v2h-4z" fill="#f4f4e6"/><path d="m40 61-5-5h-8v5z" fill="#4da6ea"/><path d="m55 55h8a0 0 0 0 1 0 0v4a0 0 0 0 1 0 0h-6a2 2 0 0 1 -2-2v-2a0 0 0 0 1 0 0z" fill="#e97424" transform="matrix(0 1 -1 0 116 -2)"/><path d="m44 61 5-5h8v5z" fill="#4da6ea"/><path d="m52 30a10 10 0 1 0 -15 8.651v1.349h10v-1.349a9.988 9.988 0 0 0 5-8.651z" fill="#4da6ea"/><path d="m36 40h12a1 1 0 0 1 1 1v3a0 0 0 0 1 0 0h-14a0 0 0 0 1 0 0v-3a1 1 0 0 1 1-1z" fill="#e97424"/><path d="m36 25h12v8h-12z" fill="#fcf05a"/><path d="m39 28h2v2h-2z" fill="#394d5c"/><path d="m43 28h2v2h-2z" fill="#394d5c"/><g fill="#fcf05a"><path d="m56 19h2v2h-2z"/><path d="m56 23h2v2h-2z"/><path d="m54 21h2v2h-2z"/><path d="m58 21h2v2h-2z"/><path d="m35 14h2v2h-2z"/><path d="m23 34h2v2h-2z"/><path d="m12 48h2v2h-2z"/></g><path d="m13 38a4 4 0 0 1 -4-4 1 1 0 0 0 -2 0 4 4 0 0 1 -4 4 1 1 0 0 0 0 2 4 4 0 0 1 4 4 1 1 0 0 0 2 0 4 4 0 0 1 4-4 1 1 0 0 0 0-2zm-5 2.69a6.044 6.044 0 0 0 -1.69-1.69 6.044 6.044 0 0 0 1.69-1.69 6.044 6.044 0 0 0 1.69 1.69 6.044 6.044 0 0 0 -1.69 1.69z" fill="#f98c96"/><path d="m43 6a3 3 0 0 1 -3-3 1 1 0 0 0 -2 0 3 3 0 0 1 -3 3 1 1 0 0 0 0 2 3 3 0 0 1 3 3 1 1 0 0 0 2 0 3 3 0 0 1 3-3 1 1 0 0 0 0-2zm-4 2.031a4.988 4.988 0 0 0 -1.031-1.031 4.988 4.988 0 0 0 1.031-1.031 4.988 4.988 0 0 0 1.031 1.031 4.988 4.988 0 0 0 -1.031 1.031z" fill="#f98c96"/></g></svg>